<svg width="33" height="34" viewBox="0 0 33 34" fill="none" xmlns="http://www.w3.org/2000/svg">
<path d="M14.322 15.8071H3.67824C3.41833 15.8071 3.16906 15.7039 2.98528 15.5201C2.80149 15.3363 2.69824 15.0871 2.69824 14.8271V4.18337C2.69824 3.92346 2.80149 3.67419 2.98528 3.4904C3.16906 3.30662 3.41833 3.20337 3.67824 3.20337H14.322C14.5819 3.20337 14.8312 3.30662 15.015 3.4904C15.1988 3.67419 15.302 3.92346 15.302 4.18337V14.8271C15.302 15.0871 15.1988 15.3363 15.015 15.5201C14.8312 15.7039 14.5819 15.8071 14.322 15.8071ZM4.65824 13.8471H13.342V5.16337H4.65824V13.8471Z" fill="#575757"/>
<path d="M29.3216 15.8071H18.6778C18.4179 15.8071 18.1686 15.7039 17.9848 15.5201C17.801 15.3363 17.6978 15.0871 17.6978 14.8271V4.18337C17.6978 3.92346 17.801 3.67419 17.9848 3.4904C18.1686 3.30662 18.4179 3.20337 18.6778 3.20337H29.3216C29.5815 3.20337 29.8308 3.30662 30.0145 3.4904C30.1983 3.67419 30.3016 3.92346 30.3016 4.18337V14.8271C30.3016 15.0871 30.1983 15.3363 30.0145 15.5201C29.8308 15.7039 29.5815 15.8071 29.3216 15.8071ZM19.6578 13.8471H28.3416V5.16337H19.6578V13.8471Z" fill="#575757"/>
<path d="M14.322 30.8067H3.67824C3.41833 30.8067 3.16906 30.7035 2.98528 30.5197C2.80149 30.3359 2.69824 30.0866 2.69824 29.8267V19.1829C2.69824 18.923 2.80149 18.6737 2.98528 18.49C3.16906 18.3062 3.41833 18.2029 3.67824 18.2029H14.322C14.5819 18.2029 14.8312 18.3062 15.015 18.49C15.1988 18.6737 15.302 18.923 15.302 19.1829V29.8267C15.302 30.0866 15.1988 30.3359 15.015 30.5197C14.8312 30.7035 14.5819 30.8067 14.322 30.8067ZM4.65824 28.8467H13.342V20.1629H4.65824V28.8467Z" fill="#575757"/>
<path d="M29.3216 30.8067H18.6778C18.4179 30.8067 18.1686 30.7035 17.9848 30.5197C17.801 30.3359 17.6978 30.0866 17.6978 29.8267V19.1829C17.6978 18.923 17.801 18.6737 17.9848 18.49C18.1686 18.3062 18.4179 18.2029 18.6778 18.2029H29.3216C29.5815 18.2029 29.8308 18.3062 30.0145 18.49C30.1983 18.6737 30.3016 18.923 30.3016 19.1829V29.8267C30.3016 30.0866 30.1983 30.3359 30.0145 30.5197C29.8308 30.7035 29.5815 30.8067 29.3216 30.8067ZM19.6578 28.8467H28.3416V20.1629H19.6578V28.8467Z" fill="#575757"/>
</svg>
