<svg width="49" height="50" viewBox="0 0 49 50" fill="none" xmlns="http://www.w3.org/2000/svg">
<rect x="0.5" y="1.00513" width="48" height="48" fill="white"/>
<rect x="0.5" y="1.00513" width="48" height="48" stroke="#A7A9AC"/>
<path d="M18.3751 23.3037H11.5696C11.1184 23.3033 10.6859 23.1239 10.367 22.8049C10.048 22.4859 9.86858 22.0534 9.86816 21.6023V14.7967C9.86858 14.3456 10.048 13.9131 10.367 13.5941C10.6859 13.2751 11.1184 13.0958 11.5696 13.0953H18.3751C18.8262 13.0958 19.2587 13.2751 19.5777 13.5941C19.8967 13.9131 20.0761 14.3456 20.0765 14.7967V21.6023C20.0761 22.0534 19.8967 22.4859 19.5777 22.8049C19.2587 23.1239 18.8262 23.3033 18.3751 23.3037ZM11.9098 21.262H18.0348V15.137H11.9098V21.262Z" fill="#575757"/>
<path d="M38.1112 16.4981H24.5001C24.2294 16.4981 23.9697 16.3906 23.7783 16.1991C23.5868 16.0077 23.4793 15.748 23.4793 15.4773C23.4793 15.2065 23.5868 14.9469 23.7783 14.7554C23.9697 14.564 24.2294 14.4564 24.5001 14.4564H38.1112C38.382 14.4564 38.6416 14.564 38.8331 14.7554C39.0245 14.9469 39.132 15.2065 39.132 15.4773C39.132 15.748 39.0245 16.0077 38.8331 16.1991C38.6416 16.3906 38.382 16.4981 38.1112 16.4981Z" fill="#575757"/>
<path d="M29.9446 21.9426H24.5001C24.2294 21.9426 23.9697 21.835 23.7783 21.6436C23.5868 21.4521 23.4793 21.1925 23.4793 20.9217C23.4793 20.651 23.5868 20.3913 23.7783 20.1999C23.9697 20.0084 24.2294 19.9009 24.5001 19.9009H29.9446C30.2153 19.9009 30.4749 20.0084 30.6664 20.1999C30.8578 20.3913 30.9654 20.651 30.9654 20.9217C30.9654 21.1925 30.8578 21.4521 30.6664 21.6436C30.4749 21.835 30.2153 21.9426 29.9446 21.9426Z" fill="#575757"/>
<path d="M18.3751 36.9148H11.5696C11.1184 36.9144 10.6859 36.735 10.367 36.416C10.048 36.097 9.86858 35.6645 9.86816 35.2134V28.4078C9.86858 27.9567 10.048 27.5242 10.367 27.2052C10.6859 26.8863 11.1184 26.7069 11.5696 26.7064H18.3751C18.8262 26.7069 19.2587 26.8863 19.5777 27.2052C19.8967 27.5242 20.0761 27.9567 20.0765 28.4078V35.2134C20.0761 35.6645 19.8967 36.097 19.5777 36.416C19.2587 36.735 18.8262 36.9144 18.3751 36.9148ZM11.9098 34.8731H18.0348V28.7481H11.9098V34.8731Z" fill="#575757"/>
<path d="M38.1112 30.1092H24.5001C24.2294 30.1092 23.9697 30.0017 23.7783 29.8102C23.5868 29.6188 23.4793 29.3591 23.4793 29.0884C23.4793 28.8176 23.5868 28.558 23.7783 28.3666C23.9697 28.1751 24.2294 28.0676 24.5001 28.0676H38.1112C38.382 28.0676 38.6416 28.1751 38.8331 28.3666C39.0245 28.558 39.132 28.8176 39.132 29.0884C39.132 29.3591 39.0245 29.6188 38.8331 29.8102C38.6416 30.0017 38.382 30.1092 38.1112 30.1092Z" fill="#575757"/>
<path d="M29.9446 35.5537H24.5001C24.2294 35.5537 23.9697 35.4461 23.7783 35.2547C23.5868 35.0632 23.4793 34.8036 23.4793 34.5328C23.4793 34.2621 23.5868 34.0024 23.7783 33.811C23.9697 33.6196 24.2294 33.512 24.5001 33.512H29.9446C30.2153 33.512 30.4749 33.6196 30.6664 33.811C30.8578 34.0024 30.9654 34.2621 30.9654 34.5328C30.9654 34.8036 30.8578 35.0632 30.6664 35.2547C30.4749 35.4461 30.2153 35.5537 29.9446 35.5537Z" fill="#575757"/>
</svg>
