<svg width="33" height="34" viewBox="0 0 33 34" fill="none" xmlns="http://www.w3.org/2000/svg">
<path d="M10.3751 15.3037H3.56955C3.11844 15.3033 2.68593 15.1239 2.36695 14.8049C2.04797 14.4859 1.86858 14.0534 1.86816 13.6023V6.79673C1.86858 6.34562 2.04797 5.91311 2.36695 5.59412C2.68593 5.27514 3.11844 5.09575 3.56955 5.09534H10.3751C10.8262 5.09575 11.2587 5.27514 11.5777 5.59412C11.8967 5.91311 12.0761 6.34562 12.0765 6.79673V13.6023C12.0761 14.0534 11.8967 14.4859 11.5777 14.8049C11.2587 15.1239 10.8262 15.3033 10.3751 15.3037ZM3.90983 13.262H10.0348V7.137H3.90983V13.262Z" fill="#575757"/>
<path d="M30.1112 8.49811H16.5001C16.2294 8.49811 15.9697 8.39056 15.7783 8.19912C15.5868 8.00768 15.4793 7.74802 15.4793 7.47728C15.4793 7.20654 15.5868 6.94689 15.7783 6.75544C15.9697 6.564 16.2294 6.45645 16.5001 6.45645H30.1112C30.382 6.45645 30.6416 6.564 30.8331 6.75544C31.0245 6.94689 31.132 7.20654 31.132 7.47728C31.132 7.74802 31.0245 8.00768 30.8331 8.19912C30.6416 8.39056 30.382 8.49811 30.1112 8.49811Z" fill="#575757"/>
<path d="M21.9446 13.9426H16.5001C16.2294 13.9426 15.9697 13.835 15.7783 13.6436C15.5868 13.4521 15.4793 13.1925 15.4793 12.9217C15.4793 12.651 15.5868 12.3913 15.7783 12.1999C15.9697 12.0084 16.2294 11.9009 16.5001 11.9009H21.9446C22.2153 11.9009 22.4749 12.0084 22.6664 12.1999C22.8578 12.3913 22.9654 12.651 22.9654 12.9217C22.9654 13.1925 22.8578 13.4521 22.6664 13.6436C22.4749 13.835 22.2153 13.9426 21.9446 13.9426Z" fill="#575757"/>
<path d="M10.3751 28.9148H3.56955C3.11844 28.9144 2.68593 28.735 2.36695 28.416C2.04797 28.097 1.86858 27.6645 1.86816 27.2134V20.4078C1.86858 19.9567 2.04797 19.5242 2.36695 19.2052C2.68593 18.8863 3.11844 18.7069 3.56955 18.7064H10.3751C10.8262 18.7069 11.2587 18.8863 11.5777 19.2052C11.8967 19.5242 12.0761 19.9567 12.0765 20.4078V27.2134C12.0761 27.6645 11.8967 28.097 11.5777 28.416C11.2587 28.735 10.8262 28.9144 10.3751 28.9148ZM3.90983 26.8731H10.0348V20.7481H3.90983V26.8731Z" fill="#575757"/>
<path d="M30.1112 22.1092H16.5001C16.2294 22.1092 15.9697 22.0017 15.7783 21.8102C15.5868 21.6188 15.4793 21.3591 15.4793 21.0884C15.4793 20.8176 15.5868 20.558 15.7783 20.3666C15.9697 20.1751 16.2294 20.0676 16.5001 20.0676H30.1112C30.382 20.0676 30.6416 20.1751 30.8331 20.3666C31.0245 20.558 31.132 20.8176 31.132 21.0884C31.132 21.3591 31.0245 21.6188 30.8331 21.8102C30.6416 22.0017 30.382 22.1092 30.1112 22.1092Z" fill="#575757"/>
<path d="M21.9446 27.5537H16.5001C16.2294 27.5537 15.9697 27.4461 15.7783 27.2547C15.5868 27.0632 15.4793 26.8036 15.4793 26.5328C15.4793 26.2621 15.5868 26.0024 15.7783 25.811C15.9697 25.6196 16.2294 25.512 16.5001 25.512H21.9446C22.2153 25.512 22.4749 25.6196 22.6664 25.811C22.8578 26.0024 22.9654 26.2621 22.9654 26.5328C22.9654 26.8036 22.8578 27.0632 22.6664 27.2547C22.4749 27.4461 22.2153 27.5537 21.9446 27.5537Z" fill="#575757"/>
</svg>
