<svg width="20" height="21" viewBox="0 0 20 21" fill="none" xmlns="http://www.w3.org/2000/svg">
<g clip-path="url(#clip0_4231_5341)">
<g clip-path="url(#clip1_4231_5341)">
<path d="M10.0699 0.760752C10.2189 0.767334 10.3613 0.823826 10.4742 0.92114C10.634 1.05501 10.7348 1.24626 10.755 1.45371C10.7752 1.66117 10.7131 1.86825 10.5821 2.03038C10.3125 2.35116 9.77339 2.28781 9.32053 2.3242C7.81989 2.46233 6.38142 2.99034 5.14778 3.85587C3.91414 4.7214 2.92819 5.89439 2.28771 7.25849C1.74734 8.44722 1.489 9.74476 1.53287 11.0498C1.57674 12.3549 1.92162 13.6321 2.5406 14.7819C3.15958 15.9316 4.03591 16.9228 5.10118 17.678C6.16644 18.4331 7.39183 18.9319 8.68167 19.1353C10.4049 19.3796 12.1617 19.0987 13.7229 18.3293C15.284 17.5599 16.577 16.3378 17.4329 14.8223C18.2858 13.1978 18.6004 11.3442 18.3313 9.52925C18.0621 7.71426 17.2232 6.03176 15.9355 4.72463C15.0719 3.87752 14.0376 3.22415 12.9016 2.80806C12.8311 2.78593 12.7657 2.75022 12.7089 2.70293C12.1496 2.28781 12.4959 1.01414 13.4785 1.37804C15.2842 2.08205 16.8538 3.28259 18.006 4.84094C19.1581 6.3993 19.8459 8.25187 19.9897 10.1846C20.0772 12.1105 19.6184 14.0218 18.6661 15.6981C17.7138 17.3744 16.307 18.7473 14.6079 19.6583C13.2083 20.3836 11.6572 20.7681 10.0809 20.7806C8.50455 20.7931 6.94754 20.4332 5.53661 19.7302C4.12567 19.0271 2.9007 18.0009 1.9614 16.7349C1.0221 15.4689 0.395028 13.999 0.131232 12.4448C-0.166314 10.5488 0.0767182 8.60737 0.832439 6.84322C1.58816 5.07908 2.82595 3.56374 4.40376 2.47111C6.05733 1.35857 8.00413 0.762335 9.99713 0.758057L10.0699 0.760752ZM10.0456 5.37966C10.127 5.38144 10.2071 5.3993 10.2815 5.43223C10.4089 5.48429 10.5204 5.56901 10.6046 5.67785C10.6888 5.7867 10.7429 5.91582 10.7613 6.05221C10.7632 6.08408 10.7632 6.11604 10.7613 6.14791V10.4541L13.8033 13.4948C13.8833 13.594 13.9429 13.7081 13.9785 13.8305C14.0142 13.9528 14.0251 14.0811 14.0109 14.2078C13.9761 14.33 13.9127 14.4423 13.826 14.5352C13.7393 14.6281 13.6316 14.699 13.512 14.7421C13.3925 14.7852 13.2643 14.7991 13.1383 14.7829C13.0122 14.7666 12.8918 14.7205 12.7871 14.6485C12.7614 14.629 12.7371 14.6079 12.7143 14.5851L9.44722 11.3194C9.30936 11.1729 9.22938 10.9813 9.22214 10.7803V6.14117C9.21934 6.06041 9.23216 5.97986 9.25988 5.90396C9.30688 5.76605 9.39123 5.64389 9.50355 5.55108C9.61587 5.45828 9.75174 5.39847 9.89604 5.37831C9.94575 5.37213 9.99606 5.37258 10.0456 5.37966Z" fill="#888A89"/>
</g>
</g>
<defs>
<clipPath id="clip0_4231_5341">
<rect width="20" height="20" fill="white" transform="translate(0 0.758057)"/>
</clipPath>
<clipPath id="clip1_4231_5341">
<rect width="20.0094" height="20" fill="white" transform="translate(-0.00390625 0.758057)"/>
</clipPath>
</defs>
</svg>
